<?xml version="1.0" encoding="UTF-8" standalone="no"?>
<!-- Created with Inkscape (http://www.inkscape.org/) -->

<svg
   xmlns:dc="http://purl.org/dc/elements/1.1/"
   xmlns:cc="http://creativecommons.org/ns#"
   xmlns:rdf="http://www.w3.org/1999/02/22-rdf-syntax-ns#"
   xmlns:svg="http://www.w3.org/2000/svg"
   xmlns="http://www.w3.org/2000/svg"
   xmlns:sodipodi="http://sodipodi.sourceforge.net/DTD/sodipodi-0.dtd"
   xmlns:inkscape="http://www.inkscape.org/namespaces/inkscape"
   id="svg3074"
   version="1.1"
   inkscape:version="0.48.4 r9939"
   width="4327.4688"
   height="1821.4375"
   sodipodi:docname="Barn-Owl1.jpg">
  <metadata
     id="metadata3080">
    <rdf:RDF>
      <cc:Work
         rdf:about="">
        <dc:format>image/svg+xml</dc:format>
        <dc:type
           rdf:resource="http://purl.org/dc/dcmitype/StillImage" />
        <dc:title></dc:title>
      </cc:Work>
    </rdf:RDF>
  </metadata>
  <defs
     id="defs3078" />
  <sodipodi:namedview
     pagecolor="#ffffff"
     bordercolor="#666666"
     borderopacity="1"
     objecttolerance="10"
     gridtolerance="10"
     guidetolerance="10"
     inkscape:pageopacity="0"
     inkscape:pageshadow="2"
     inkscape:window-width="1366"
     inkscape:window-height="718"
     id="namedview3076"
     showgrid="false"
     fit-margin-top="0"
     fit-margin-left="0"
     fit-margin-right="0"
     fit-margin-bottom="0"
     inkscape:zoom="0.15366906"
     inkscape:cx="2502.5317"
     inkscape:cy="916.7549"
     inkscape:window-x="0"
     inkscape:window-y="0"
     inkscape:window-maximized="1"
     inkscape:current-layer="svg3074" />
  <g
     id="g3896"
     transform="translate(-673.3125,-652.0625)">
    <path
       inkscape:connector-curvature="0"
       id="path3084"
       d="m 2670.015,1703.4261 24.1578,33.3608 -2.3007,64.4208 39.1127,144.947 80.5261,-133.4432 4.6014,-77.075 23.0075,-25.3082"
       style="fill:none;stroke:#000000;stroke-width:15;stroke-linecap:butt;stroke-linejoin:miter;stroke-miterlimit:4;stroke-opacity:1;stroke-dasharray:none" />
    <path
       inkscape:connector-curvature="0"
       id="path3086"
       d="m 2753.9922,1629.8022 -81.6764,-51.7668 -136.8944,135.744 -8.0526,139.1951 201.3152,151.8492 257.6835,-129.9921 8.0526,-157.6011 -142.6462,-131.1425 z"
       style="fill:none;stroke:#000000;stroke-width:15;stroke-linecap:butt;stroke-linejoin:miter;stroke-miterlimit:4;stroke-opacity:1;stroke-dasharray:none" />
    <path
       inkscape:connector-curvature="0"
       id="path3092"
       d="m 2503.211,1935.8013 -312.9014,46.0149 82.8268,57.5187 -16.1052,36.8119 105.8343,41.4134 -20.7067,64.4209 108.135,13.8045 -4.6015,48.3156 98.9321,6.9023 18.406,41.4134 128.8417,-36.812"
       style="fill:none;stroke:#000000;stroke-width:15;stroke-linecap:butt;stroke-linejoin:miter;stroke-miterlimit:4;stroke-opacity:1;stroke-dasharray:none" />
    <path
       inkscape:connector-curvature="0"
       id="path3094"
       d="m 3050.7884,1935.8013 407.2319,23.0075 -101.2328,55.2179 16.1052,52.9171 -149.5484,43.7142 27.6089,75.9246 -149.5484,2.3007 -4.6015,64.4209 -119.6388,-20.7067"
       style="fill:none;stroke:#000000;stroke-width:15;stroke-linecap:butt;stroke-linejoin:miter;stroke-miterlimit:4;stroke-opacity:1;stroke-dasharray:none" />
    <path
       inkscape:connector-curvature="0"
       id="path3096"
       d="M 2484.805,1666.6141 1900.4157,1215.668 676.41914,658.88766"
       style="fill:none;stroke:#000000;stroke-width:15;stroke-linecap:butt;stroke-linejoin:miter;stroke-miterlimit:4;stroke-opacity:1;stroke-dasharray:none" />
    <path
       inkscape:connector-curvature="0"
       id="path3098"
       d="M 3059.9914,1680.4186 3621.3732,1211.0665 4988.016,709.50405"
       style="fill:none;stroke:#000000;stroke-width:15;stroke-linecap:butt;stroke-linejoin:miter;stroke-miterlimit:4;stroke-opacity:1;stroke-dasharray:none" />
    <path
       transform="translate(-46,-32)"
       d="m 2939.2023,1803.5084 c 0,19.06 -15.4511,34.5112 -34.5111,34.5112 -19.06,0 -34.5112,-15.4512 -34.5112,-34.5112 0,-19.06 15.4512,-34.5112 34.5112,-34.5112 19.06,0 34.5111,15.4512 34.5111,34.5112 z"
       sodipodi:ry="34.511181"
       sodipodi:rx="34.511181"
       sodipodi:cy="1803.5084"
       sodipodi:cx="2904.6912"
       id="path3868"
       style="stroke-width:15;stroke-miterlimit:4;stroke-dasharray:none"
       sodipodi:type="arc" />
    <path
       transform="translate(-256.83397,-39.112614)"
       d="m 2939.2023,1803.5084 c 0,19.06 -15.4511,34.5112 -34.5111,34.5112 -19.06,0 -34.5112,-15.4512 -34.5112,-34.5112 0,-19.06 15.4512,-34.5112 34.5112,-34.5112 19.06,0 34.5111,15.4512 34.5111,34.5112 z"
       sodipodi:ry="34.511181"
       sodipodi:rx="34.511181"
       sodipodi:cy="1803.5084"
       sodipodi:cx="2904.6912"
       id="path3868-4"
       style="stroke-width:15;stroke-miterlimit:4;stroke-dasharray:none"
       sodipodi:type="arc" />
    <path
       sodipodi:nodetypes="cccccccccccccccccccccc"
       inkscape:connector-curvature="0"
       id="path3888"
       d="m 2457.7976,1823.0648 -73.6239,4.6015 -23.0074,-82.8268 -87.4284,-9.203 -32.2104,-59.8194 -87.4283,-4.6015 -18.406,-46.0149 -69.0224,-4.6015 -18.4059,-46.0149 -73.6239,-32.2104 -87.4283,-96.6313 -82.8268,-32.2105 -50.6164,-69.0223 -64.4209,-46.0149 -50.6164,-59.8194 -78.2253,-46.0149 -52.9171,-44.8646 -133.4433,-78.2253 -43.7142,-33.3608 -50.6164,-18.406 L 985.32051,884.3607 704.62958,691.09809"
       style="fill:none;stroke:#000000;stroke-width:15;stroke-linecap:butt;stroke-linejoin:miter;stroke-miterlimit:4;stroke-opacity:1;stroke-dasharray:none" />
    <path
       sodipodi:nodetypes="ccccccccccccccccccccc"
       inkscape:connector-curvature="0"
       id="path3890"
       d="m 3078.3973,1878.2827 59.8194,-64.4209 69.0224,-23.0074 27.6089,-82.8269 82.8268,0 32.2105,-41.4134 64.4208,-27.6089 32.2105,-27.609 64.4208,-13.8044 27.609,-41.4134 87.4283,-27.609 23.0075,-32.2104 50.6164,-13.8045 13.8045,-47.1653 112.7365,-48.3156 85.1275,-14.9549 36.812,-73.6238 128.8417,-105.8343 138.0447,-96.6313 492.3595,-170.25518 289.894,-156.45069"
       style="fill:none;stroke:#000000;stroke-width:15;stroke-linecap:butt;stroke-linejoin:miter;stroke-miterlimit:4;stroke-opacity:1;stroke-dasharray:none" />
    <path
       inkscape:connector-curvature="0"
       id="path3892"
       d="m 2793.3404,2289.0098 16.2687,183.8366"
       style="fill:none;stroke:#000000;stroke-width:15;stroke-linecap:butt;stroke-linejoin:miter;stroke-miterlimit:4;stroke-opacity:1;stroke-dasharray:none" />
    <path
       inkscape:connector-curvature="0"
       id="path3894"
       d="m 2887.699,2287.383 43.9255,178.956"
       style="fill:none;stroke:#000000;stroke-width:15;stroke-linecap:butt;stroke-linejoin:miter;stroke-miterlimit:4;stroke-opacity:1;stroke-dasharray:none" />
  </g>
</svg>
